<?xml version="1.0" encoding="UTF-8"?><svg id="Layer_1" xmlns="http://www.w3.org/2000/svg" viewBox="0 0 100 100"><path d="M41.05,84.19c.69,1.37,1.5,2.65,2.43,3.81h-22.81c-4.79,0-8.67-3.88-8.67-8.67v-38.67c0-4.79,3.88-8.67,8.67-8.67h30.67c4.79,0,8.67,3.88,8.67,8.67v7.33h-3.22c-7.27,0-13.93,3.69-17.8,9.87-3.81,6.08-4.23,13.53-1.12,19.94l.14.27,3.06,6.11ZM75.01,56h-18.23c-9.42,0-15.83,9.84-11.72,18.32.03.06.06.12.09.18l3.06,6.11c2.26,4.53,6.89,7.39,11.95,7.39h11.48c5.06,0,9.69-2.86,11.95-7.39l3.06-6.11c.03-.06.06-.12.09-.18,4.11-8.48-2.31-18.32-11.72-18.32ZM83.8,30.26c-4.66-.51-9.5,1.01-13.07,4.58-3.57,3.57-5.09,8.41-4.58,13.07.58.06,1.17.1,1.75.1,4.1,0,8.19-1.55,11.31-4.68,3.57-3.57,5.09-8.41,4.58-13.07ZM52,12H20v12h32v-12Z"/></svg>