<?xml version="1.0" encoding="UTF-8"?><svg id="Layer_1" xmlns="http://www.w3.org/2000/svg" viewBox="0 0 100 100"><path d="M70,13.46H30v4.28H10v6.95c0,5.61,2.23,11,6.2,14.97s8.7,6.58,13.92,7.89c.44,3.81,2.14,7.38,4.88,10.12,2.95,2.95,6.86,4.69,11,4.95v8.38h-6.02c-3.6,0-6.59,2.59-7.22,6h-7.75v10h50v-10h-7.75c-.64-3.41-3.63-6-7.22-6h-6.02v-8.38c4.14-.26,8.05-2,11-4.95,2.74-2.74,4.44-6.31,4.88-10.12,5.23-1.31,10.05-4.02,13.92-7.89s6.2-9.35,6.2-14.97v-6.95h-20v-4.28ZM18.04,25.74h11.96v13.44c-3.03-1.08-5.8-2.83-8.14-5.17s-3.57-5.14-3.82-8.27ZM81.96,25.74c-.24,3.12-1.58,6.03-3.82,8.27-2.34,2.34-5.12,4.09-8.14,5.17v-13.44h11.96Z"/></svg>